<svg xmlns="http://www.w3.org/2000/svg" width="159" height="163.856" viewBox="0 0 159 163.856"><defs><style>.a{fill:#fff;}.b{fill:#a9d8d1;}.c{fill:#289d8c;}.d{fill:#126666;}</style></defs><g transform="translate(-2072.231 -4106.557)"><path class="a" d="M2149.694,4266.084c-1.5-.411-37.012-10.506-59.749-48.5-23.037-38.492-11.035-72.6-10.513-74.037l1.849-5.075h9.489c20.443,0,41.749-8.309,55.6-21.685l5.359-5.173,5.359,5.173c13.855,13.376,35.164,21.685,55.611,21.685h9.492l1.847,5.076c.522,1.434,12.514,35.544-10.513,74.035-22.737,38-58.256,48.094-59.757,48.5l-2.039.559Z"/><path class="b" d="M2151.731,4270.413l-3-.824c-1.567-.43-38.436-10.919-61.906-50.143-23.93-39.984-11.355-75.651-10.808-77.15l2.717-7.463h12.035c19.537,0,39.875-7.918,53.079-20.665l7.883-7.611,7.884,7.611c13.2,12.747,33.545,20.665,53.086,20.665h12.037l2.718,7.468c.546,1.5,13.091,37.193-10.809,77.144-23.459,39.2-60.355,49.716-61.915,50.145Zm-67.906-128.31-.977,2.684c-.5,1.368-11.956,33.879,10.216,70.926,21.99,36.751,56.148,46.47,57.591,46.866h0l1.077.295,1.077-.295c1.442-.4,35.622-10.139,57.6-46.866,22.145-37.017,10.715-69.558,10.217-70.926l-.977-2.684H2212.7c-21.353,0-43.629-8.7-58.135-22.7l-2.835-2.737-2.834,2.737c-14.507,14-36.78,22.7-58.128,22.7Z"/><path class="c" d="M2151.656,4196.979c-23.976,0-46.277-3.607-64.9-9.8a90.061,90.061,0,0,0,10.6,26.077c21.1,35.259,54.368,44.368,54.368,44.368v-60.647Z"/><path class="d" d="M2151.734,4257.625s33.271-9.109,54.369-44.368a90.065,90.065,0,0,0,10.617-26.133c-18.632,6.219-40.967,9.846-64.986,9.854Z"/><path class="d" d="M2151.734,4196.978v-73.673c-15.643,15.1-38.679,23.506-60.078,23.506h-4.027s-6.23,17.142-.868,40.369c18.618,6.192,40.919,9.8,64.9,9.8Z"/><path class="c" d="M2215.84,4146.811h-4.028c-21.4,0-44.434-8.4-60.078-23.506v73.673c24.019-.008,46.354-3.635,64.986-9.854C2222.059,4163.925,2215.84,4146.811,2215.84,4146.811Z"/></g></svg>