<svg xmlns="http://www.w3.org/2000/svg" width="159.002" height="162.438" viewBox="0 0 159.002 162.438"><defs><style>.a{fill:#289d8c;}.b{fill:#a9d8d1;}.c{fill:#fff;}.d{fill:#126666;}.e,.f,.g,.h{fill:none;stroke-linejoin:round;}.e,.g{stroke:#289d8c;}.e{stroke-width:5.376px;}.f{stroke:#fff;stroke-width:2px;}.f,.g,.h{stroke-linecap:round;}.g{stroke-width:5.122px;}.h{stroke:#126666;stroke-width:1.984px;}</style></defs><g transform="translate(-1509.493 -4105.081)"><rect class="a" width="25.629" height="23.457" transform="translate(1575.646 4240.013)"/><rect class="b" width="159" height="139.125" rx="5.313" transform="translate(1509.493 4105.081)"/><rect class="c" width="146.94" height="109.55" transform="translate(1515.525 4110.361)"/><rect class="d" width="34.475" height="109.55" transform="translate(1514.99 4110.361)"/><line class="e" x1="159" transform="translate(1509.495 4220.681)"/><line class="f" x2="14.997" transform="translate(1521.506 4126.354)"/><line class="f" x2="14.997" transform="translate(1526.708 4132.774)"/><line class="f" x2="14.997" transform="translate(1521.506 4139.195)"/><line class="f" x2="14.997" transform="translate(1521.506 4152.036)"/><line class="f" x2="14.997" transform="translate(1526.708 4145.615)"/><line class="f" x2="14.997" transform="translate(1521.506 4170.661)"/><line class="f" x2="14.997" transform="translate(1526.708 4177.082)"/><line class="f" x2="14.997" transform="translate(1521.506 4183.502)"/><line class="f" x2="14.997" transform="translate(1521.506 4196.343)"/><line class="f" x2="14.997" transform="translate(1526.708 4189.923)"/><line class="g" x2="60.502" transform="translate(1558.742 4264.958)"/><path class="b" d="M1616.966,4171.956h15.511c1.466,0,11.6-2.315,11.6-11.549s-7.2-11.537-11.84-11.537c2.763-4.823-1.648-17.414-12.979-17.414-12.167,0-13.427,10.277-13.427,10.277a7.135,7.135,0,0,0-9.44-.618c-5.247,3.769-2.933,10.277-2.933,10.277s-9.028.424-9.028,9.646a16.5,16.5,0,0,0,.182,2.424h.012"/><path class="c" d="M1632.477,4172.956h-15.511a1,1,0,0,1,0-2h15.511c.106,0,10.6-1.451,10.6-10.549,0-10.029-9.03-10.537-10.841-10.537a1,1,0,0,1-.867-1.5c1.242-2.169.737-6.172-1.2-9.517a12.3,12.3,0,0,0-10.91-6.4c-11.1,0-12.386,9.018-12.435,9.4a1,1,0,0,1-1.7.581,6.142,6.142,0,0,0-8.118-.533c-4.612,3.314-2.623,9.093-2.6,9.152a1,1,0,0,1-.9,1.334c-.327.016-8.075.513-8.075,8.647a15.632,15.632,0,0,0,.155,2.172,1,1,0,0,1-.961,1.252,1.014,1.014,0,0,1-1-.854,17.641,17.641,0,0,1-.192-2.569c0-7.9,6.1-9.957,8.762-10.476-.594-2.8-.394-7.38,3.616-10.26a8.131,8.131,0,0,1,9.43-.342c.982-3.106,4.2-9.5,14.02-9.5a14.333,14.333,0,0,1,12.639,7.4c1.953,3.367,2.61,7.269,1.8,10.083,5.542.507,11.379,3.97,11.379,12.47C1645.077,4170.464,1634.047,4172.956,1632.477,4172.956Z"/><path class="b" d="M1576.351,4195.812s-7.554-1.678-7.554-10.909,9.022-9.651,9.022-9.651-2.309-6.5,2.938-10.281a7.14,7.14,0,0,1,9.442.63s1.258-10.281,13.427-10.281c11.33,0,15.736,12.589,12.978,17.414,4.646,0,11.84,2.307,11.84,11.539s-10.131,11.539-11.6,11.539Z"/><path class="c" d="M1616.844,4196.813h-40.493a.974.974,0,0,1-.217-.024c-.084-.018-8.337-1.968-8.337-11.886,0-7.91,6.095-9.962,8.757-10.48-.593-2.8-.39-7.379,3.619-10.264a8.131,8.131,0,0,1,9.433-.332c.982-3.106,4.2-9.507,14.02-9.507a14.337,14.337,0,0,1,12.633,7.388c1.955,3.37,2.614,7.275,1.8,10.093,5.542.508,11.38,3.97,11.38,12.472C1629.444,4194.322,1618.414,4196.813,1616.844,4196.813Zm-40.37-2h40.37c.106,0,10.6-1.451,10.6-10.54,0-10.031-9.03-10.539-10.84-10.539a1,1,0,0,1-.869-1.5c1.243-2.173.736-6.179-1.207-9.526a12.292,12.292,0,0,0-10.9-6.392c-11.1,0-12.386,9.021-12.435,9.405a1,1,0,0,1-1.7.579,6.152,6.152,0,0,0-8.12-.542c-4.612,3.32-2.628,9.1-2.607,9.156a1,1,0,0,1-.9,1.333c-.327.017-8.068.51-8.068,8.652C1569.8,4192.733,1575.609,4194.581,1576.474,4194.813Z"/><g transform="translate(1209.492 3136.082)"><line class="h" y1="14.467" x2="4.873" transform="translate(387.135 1035.973)"/><path class="h" d="M2326.627,1850.057l6.822,2.572-6.822,2.733" transform="translate(-1930.721 -809.262)"/><path class="h" d="M2313.284,1855.362l-6.822-2.572,6.822-2.733" transform="translate(-1930.721 -809.262)"/></g></g></svg>