<svg xmlns="http://www.w3.org/2000/svg" width="159" height="153.824" viewBox="0 0 159 153.824"><defs><style>.a{fill:#a9d8d1;opacity:0.7;isolation:isolate;}.b{fill:#289d8c;}.c{fill:#126666;}</style></defs><g transform="translate(-1854 -3716.175)"><path class="a" d="M1929.863,3758.008l-43.3,24.98a6.351,6.351,0,0,0-3.2,5.582v50.015a6.6,6.6,0,0,0,3.2,5.581l43.3,24.981a6.521,6.521,0,0,0,6.448,0l43.3-24.981a6.349,6.349,0,0,0,3.2-5.581V3788.57a6.6,6.6,0,0,0-3.2-5.582l-43.3-24.98a6.516,6.516,0,0,0-6.448,0Z"/><path class="b" d="M1931.109,3772.1l-32.35,18.64a4.846,4.846,0,0,0-2.384,4.173v37.335a4.845,4.845,0,0,0,2.384,4.172l32.35,18.641a4.7,4.7,0,0,0,4.768,0l32.35-18.641a4.846,4.846,0,0,0,2.385-4.172V3794.91a4.848,4.848,0,0,0-2.385-4.173l-32.35-18.64a4.7,4.7,0,0,0-4.768,0Z"/><path class="c" d="M1955.71,3739.855l-21.458-23.355a1.049,1.049,0,0,0-1.518,0l-21.4,23.355a1.089,1.089,0,0,0-.162,1.138,1.023,1.023,0,0,0,.975.6h9.158a1.476,1.476,0,0,1,1.409,1.572l9.808,73.1a1.036,1.036,0,0,0,2.059,0l9.808-73.262a1.434,1.434,0,0,1,1.409-1.409h9.157a1.08,1.08,0,0,0,.976-.6,1.241,1.241,0,0,0-.217-1.138Z"/><path class="c" d="M1933.872,3814.742c-12.246-38.256-45.138-43.3-55-43.946h-2.059a1.029,1.029,0,0,1-1.03-1.029v-7.7a1.077,1.077,0,0,0-.6-.975,1.09,1.09,0,0,0-1.138.162l-19.724,18.153a1.048,1.048,0,0,0,0,1.517l19.724,18.1a1.089,1.089,0,0,0,1.138.162,1.021,1.021,0,0,0,.6-.975v-7.749a1.029,1.029,0,0,1,1.03-1.029h2.059c8.67.487,38.04,3.739,53.158,26.172a1.132,1.132,0,0,0,.867.434,1.013,1.013,0,0,0,.434-.109.922.922,0,0,0,.541-1.192Z"/><path class="c" d="M2012.715,3779.412l-19.724-18.1a1.089,1.089,0,0,0-1.138-.162,1.024,1.024,0,0,0-.6.975v7.749a1.03,1.03,0,0,1-1.03,1.03h-2.167c-9.808.65-42.7,5.635-54.892,43.946a1,1,0,0,0,.542,1.246,1.679,1.679,0,0,0,.433.108,1.13,1.13,0,0,0,.867-.433c15.119-22.434,44.542-25.685,53.1-26.173h2.059a1.029,1.029,0,0,1,1.03,1.03v7.749a1.042,1.042,0,0,0,1.734.812l19.724-18.1a1.07,1.07,0,0,0,.325-.759c.054-.487-.054-.758-.271-.921Z"/></g></svg>